<?xml version="1.0" encoding="UTF-8"?>
<svg version="1.1" xmlns="http://www.w3.org/2000/svg" width="500" height="500">
<path d="M0 0 C165 0 330 0 500 0 C500 165 500 330 500 500 C335 500 170 500 0 500 C0 335 0 170 0 0 Z " fill="#000000" transform="translate(0,0)"/>
<path d="M0 0 C2.38671875 1.64453125 2.38671875 1.64453125 4.6875 3.8125 C5.83798828 4.87404297 5.83798828 4.87404297 7.01171875 5.95703125 C9.67251648 8.69101399 10.92385424 10.35276104 11.375 14.1875 C10.58595339 22.20947388 6.51605181 26.92157501 0.5 31.875 C-10.669197 41.67654023 -17.66058668 54.5129357 -25.00537109 67.25732422 C-29.18441444 74.45593607 -33.75421289 81.38737363 -38.32470703 88.34155273 C-43.83864367 96.7319935 -49.21968274 105.19918427 -54.55712891 113.70263672 C-56.99015649 117.57654358 -59.43243461 121.44460221 -61.875 125.3125 C-62.61012817 126.47700684 -62.61012817 126.47700684 -63.36010742 127.66503906 C-66.63517072 132.84953908 -69.92214818 138.02634459 -73.21630859 143.19873047 C-74.40506072 145.0656538 -75.59288712 146.93316691 -76.77978516 148.80126953 C-79.57155644 153.19451005 -82.37227328 157.58104266 -85.203125 161.94921875 C-91.637563 171.92535265 -97.34677725 182.0991274 -102.77783203 192.65039062 C-108.37797494 203.41662622 -114.366456 213.88099015 -121.08984375 223.984375 C-124.35796156 229.14385751 -126.44299309 232.79809678 -126 239 C-123.02749604 238.67121288 -122.01944412 238.01980353 -119.88671875 235.84765625 C-119.16097656 234.92855469 -118.43523437 234.00945312 -117.6875 233.0625 C-116.61048828 231.71865234 -116.61048828 231.71865234 -115.51171875 230.34765625 C-114.09244029 228.50664267 -112.75950377 226.64259428 -111.46118164 224.71313477 C-107.21499583 218.40774754 -102.50446761 213.10751152 -97.0625 207.8125 C-96.30259766 207.05775391 -95.54269531 206.30300781 -94.75976562 205.52539062 C-90.55258276 201.37569275 -86.25019516 197.3869399 -81.75488281 193.55102539 C-79.97842465 191.98093096 -78.3293573 190.3344417 -76.6875 188.625 C-72.99215603 184.86246796 -68.93125957 181.62441936 -64.82421875 178.32421875 C-62.13053352 176.10742385 -59.56212414 173.80410433 -57 171.4375 C-41.71809145 157.50255454 -41.71809145 157.50255454 -31.15625 157.5859375 C-24.17335148 158.50201082 -18.3929989 162.29728924 -12.75 166.3125 C-10.2463419 170.15740352 -10.38147958 173.59253801 -11 178 C-12.36851243 182.21566823 -14.18392091 186.177228 -16.0625 190.1875 C-16.56837646 191.29593262 -17.07425293 192.40436523 -17.59545898 193.54638672 C-19.04576837 196.70627867 -20.51979255 199.85403053 -22 203 C-22.64595504 204.40489196 -23.29180968 205.8098301 -23.9375 207.21484375 C-27.15906976 213.97549374 -30.95425462 220.09651467 -35.16381836 226.26293945 C-48.48972017 245.87202542 -56.64623423 267.21620253 -64.25683594 289.52612305 C-72.96700589 314.96700589 -72.96700589 314.96700589 -77 319 C-80.125 318.625 -80.125 318.625 -83 318 C-89.43195935 298.20641082 -84.30829552 277.90364674 -77 259 C-76.70416016 258.23091309 -76.40832031 257.46182617 -76.10351562 256.66943359 C-69.1375318 238.90033333 -60.61448819 219.92173228 -50 204 C-49.61500109 202.34450469 -49.27206865 200.6777567 -49 199 C-67.55347292 206.18571616 -84.19652786 226.56782658 -96 242 C-97.09607893 243.39316949 -98.19388983 244.78497724 -99.29296875 246.17578125 C-107.57189172 256.685545 -115.48239454 267.39202891 -123.03515625 278.43359375 C-123.82092041 279.57139282 -123.82092041 279.57139282 -124.62255859 280.73217773 C-125.63264689 282.19593907 -126.63488616 283.66516263 -127.62744141 285.14086914 C-131.19915464 290.30500712 -135.2901866 295.1450933 -141 298 C-143.0234375 298.2734375 -143.0234375 298.2734375 -145.375 298.375 C-146.14585937 298.42398437 -146.91671875 298.47296875 -147.7109375 298.5234375 C-151.16209969 297.73426389 -152.08981854 295.90714156 -154 293 C-154.50170898 289.93579102 -154.50170898 289.93579102 -154.49609375 286.50390625 C-154.49907471 285.23353516 -154.50205566 283.96316406 -154.50512695 282.65429688 C-154.48449638 281.29033433 -154.46191286 279.92640009 -154.4375 278.5625 C-154.4272731 277.5259729 -154.4272731 277.5259729 -154.4168396 276.46850586 C-154.32625266 267.60507996 -153.95459186 258.79801259 -152.8125 250 C-152.66155884 248.79645874 -152.66155884 248.79645874 -152.50756836 247.56860352 C-150.32805927 233.27354492 -144.14472931 220.480568 -137.68212891 207.71240234 C-136.38373956 205.14229957 -135.10697521 202.56226709 -133.83203125 199.98046875 C-128.60035053 189.49590388 -122.8198649 179.58877988 -116.26600647 169.87704468 C-103.62478366 151.13453383 -92.27942812 131.57017408 -80.9453125 112.01953125 C-80.32696533 110.95355713 -79.70861816 109.88758301 -79.0715332 108.78930664 C-77.94881121 106.84943625 -76.82977415 104.90742531 -75.71557617 102.96264648 C-71.75764398 96.11047245 -67.4412285 89.5472656 -63 83 C-53.96837926 69.61539217 -45.02873448 56.22651803 -36.625 42.4375 C-9.88982251 -1.37894077 -9.88982251 -1.37894077 0 0 Z " fill="#FCFCFC" transform="translate(251,103)"/>
<path d="M0 0 C5.08438708 0.46221701 9.30369328 2.00535884 12.83203125 5.8203125 C15.86421976 10.42752472 16.37119019 14.94378142 15.4375 20.3125 C13.39971305 27.41969957 11.71664379 33.01624372 5.4375 37.3125 C2.91274538 38.57487731 1.12549534 38.41106404 -1.6875 38.375 C-2.59757812 38.36597656 -3.50765625 38.35695313 -4.4453125 38.34765625 C-5.14398438 38.33605469 -5.84265625 38.32445312 -6.5625 38.3125 C-7.6484375 36.54296875 -7.6484375 36.54296875 -8.5625 34.3125 C-7.84163883 32.37928141 -7.11180766 30.44793995 -6.30078125 28.55078125 C-5.07689729 24.84027592 -5.32123712 21.17270602 -5.5625 17.3125 C-11.85992262 16.95831425 -16.25357489 17.91710369 -22 20.4375 C-23.11314575 20.91292236 -23.11314575 20.91292236 -24.2487793 21.39794922 C-32.46420593 25.00103277 -40.38084097 28.94918194 -44.5625 37.3125 C-45.49677608 48.75738199 -39.43433274 57.36847534 -33.59375 66.64648438 C-32.68065338 68.12161963 -31.82047798 69.62922535 -30.96875 71.140625 C-29.59470241 73.57771732 -29.59470241 73.57771732 -26.5625 75.3125 C-19.39895869 75.32206414 -13.54994055 71.54998863 -7.375 68.25 C-6.25528809 67.65727295 -5.13557617 67.0645459 -3.98193359 66.45385742 C7.15382657 60.49587627 16.6396043 54.24832033 25.8984375 45.58984375 C29.94395587 41.96132497 33.85339022 38.82932196 39.25 37.75 C41.4375 38.3125 41.4375 38.3125 43.3125 39.875 C44.99365291 43.51749797 44.52837109 45.46236674 43.4375 49.3125 C35.708001 63.23696511 20.12358393 71.84139614 6.78076172 79.52856445 C1.38013124 82.67019042 -3.61033513 86.09143828 -8.55859375 89.9140625 C-10.5625 91.3125 -10.5625 91.3125 -12.5625 91.3125 C-12.83835937 91.88871094 -13.11421875 92.46492188 -13.3984375 93.05859375 C-14.54128266 95.2714181 -15.83120961 97.28752513 -17.1875 99.375 C-20.1929447 104.30363681 -22.33979302 109.41760654 -24.5 114.75 C-32.78377066 134.98219663 -45.85961807 147.83955233 -65.98046875 156.3828125 C-74.62088327 159.4938846 -84.47083016 161.17536845 -93.25 157.8125 C-99.33382805 154.75443422 -103.72435525 149.75928827 -106.5 143.5625 C-108.63999483 136.75464144 -108.66103582 129.20361956 -106 122.5625 C-95.80388035 103.08125421 -68.17373145 92.92075656 -48.5625 85.3125 C-50.52829977 80.19885091 -52.92251549 76.27995669 -56.4375 72.0625 C-64.15889534 62.44823492 -68.50093195 52.76805133 -67.5625 40.3125 C-65.02796966 28.61773796 -55.24775744 22.28055881 -45.75195312 16.14208984 C-38.05420738 11.33806646 -30.11854056 7.50144069 -21.625 4.3125 C-20.85663818 4.02165527 -20.08827637 3.73081055 -19.29663086 3.43115234 C-12.89304158 1.14845216 -6.72545219 0.58995195 0 0 Z " fill="#FBFBFB" transform="translate(329.5625,262.6875)"/>
<path d="M0 0 C0 8.49805616 -5.63427511 14.54970916 -11.33203125 20.390625 C-32.22743625 39.69946452 -32.22743625 39.69946452 -42.84375 39.36328125 C-46.0640318 38.82073377 -47.79950371 37.3380273 -50 35 C-51.55024464 31.89951072 -51.28992015 29.42105782 -51 26 C-47.8333783 20.79039655 -43.1188387 18.43000404 -37.9375 15.5625 C-37.08494629 15.08095459 -36.23239258 14.59940918 -35.35400391 14.10327148 C-32.9081051 12.72550659 -30.45488585 11.36166577 -28 10 C-26.88496094 9.3709375 -25.76992188 8.741875 -24.62109375 8.09375 C-22.0997115 6.68780143 -19.56381493 5.32669957 -17 4 C-16.21496094 3.58878906 -15.42992187 3.17757813 -14.62109375 2.75390625 C-9.47874842 0.23929068 -5.71757395 -0.41582356 0 0 Z " fill="#040404" transform="translate(293,365)"/>
<path d="M0 0 C3.09525872 1.2109521 5.46351382 2.87000199 8 5 C8.60328125 5.49628906 9.2065625 5.99257813 9.828125 6.50390625 C13.35926868 9.92779557 14.42447163 12.63618631 14.625 17.5625 C14.25762362 23.79935488 11.98114652 26.96530898 7.6875 31.375 C3.94242866 33.63946174 2.33444819 33.85267833 -2 33 C-8.16322774 29.22407189 -13.48639035 24.85529905 -16 18 C-16.69960626 12.41803513 -17.02629709 7.74470506 -14.125 2.8125 C-9.81828404 -0.86087538 -5.46518695 -0.69717194 0 0 Z " fill="#FBFBFB" transform="translate(356,364)"/>
</svg>
