<svg xmlns="http://www.w3.org/2000/svg" xmlns:xlink="http://www.w3.org/1999/xlink" width="500" zoomAndPan="magnify" viewBox="0 0 375 374.999991" height="500" preserveAspectRatio="xMidYMid meet" version="1.0"><defs><g/><clipPath id="a10ce47010"><rect x="0" width="313" y="0" height="372"/></clipPath></defs><rect x="-37.5" width="450" fill="#ffffff" y="-37.499999" height="449.999989" fill-opacity="1"/><rect x="-37.5" width="450" fill="#ffffff" y="-37.499999" height="449.999989" fill-opacity="1"/><g transform="matrix(1, 0, 0, 1, 33, 0)"><g clip-path="url(#a10ce47010)"><g fill="#000000" fill-opacity="1"><g transform="translate(0.461494, 277.165293)"><g><path d="M 15.359375 -176.171875 L 48.578125 -176.171875 L 48.578125 -104.1875 L 105.453125 -104.1875 L 105.453125 -176.171875 L 138.671875 -176.171875 L 138.671875 0 L 105.453125 0 L 105.453125 -72.484375 L 48.578125 -72.484375 L 48.578125 0 L 15.359375 0 Z M 15.359375 -176.171875 "/></g></g></g><g fill="#000000" fill-opacity="1"><g transform="translate(154.48178, 277.165293)"><g><path d="M 107.21875 -122.3125 C 107.21875 -129.351562 104.488281 -135.472656 99.03125 -140.671875 C 93.582031 -145.878906 85.90625 -148.484375 76 -148.484375 C 67.613281 -148.484375 60.988281 -146.765625 56.125 -143.328125 C 51.257812 -139.890625 48.828125 -135.234375 48.828125 -129.359375 C 48.828125 -126.335938 49.410156 -123.609375 50.578125 -121.171875 C 51.753906 -118.742188 53.8125 -116.566406 56.75 -114.640625 C 59.6875 -112.710938 63.546875 -110.992188 68.328125 -109.484375 C 73.109375 -107.972656 79.191406 -106.546875 86.578125 -105.203125 C 105.035156 -101.847656 119.128906 -96.226562 128.859375 -88.34375 C 138.585938 -80.457031 143.453125 -68.796875 143.453125 -53.359375 L 143.453125 -50.328125 C 143.453125 -42.109375 141.984375 -34.6875 139.046875 -28.0625 C 136.109375 -21.4375 131.867188 -15.773438 126.328125 -11.078125 C 120.796875 -6.378906 114.085938 -2.769531 106.203125 -0.25 C 98.316406 2.257812 89.425781 3.515625 79.53125 3.515625 C 67.945312 3.515625 57.75 1.878906 48.9375 -1.390625 C 40.132812 -4.660156 32.796875 -9.1875 26.921875 -14.96875 C 21.054688 -20.757812 16.613281 -27.554688 13.59375 -35.359375 C 10.570312 -43.160156 9.0625 -51.675781 9.0625 -60.90625 L 9.0625 -68.453125 L 42.28125 -68.453125 L 42.28125 -62.421875 C 42.28125 -51.847656 45.34375 -43.414062 51.46875 -37.125 C 57.59375 -30.832031 67.113281 -27.6875 80.03125 -27.6875 C 90.09375 -27.6875 97.554688 -29.863281 102.421875 -34.21875 C 107.296875 -38.582031 109.734375 -43.785156 109.734375 -49.828125 C 109.734375 -52.679688 109.226562 -55.40625 108.21875 -58 C 107.207031 -60.601562 105.441406 -62.953125 102.921875 -65.046875 C 100.410156 -67.148438 96.972656 -69.039062 92.609375 -70.71875 C 88.253906 -72.394531 82.71875 -73.820312 76 -75 C 67.113281 -76.507812 58.976562 -78.476562 51.59375 -80.90625 C 44.207031 -83.34375 37.785156 -86.570312 32.328125 -90.59375 C 26.878906 -94.625 22.644531 -99.660156 19.625 -105.703125 C 16.601562 -111.742188 15.09375 -119.125 15.09375 -127.84375 L 15.09375 -129.359375 C 15.09375 -136.578125 16.5625 -143.242188 19.5 -149.359375 C 22.4375 -155.484375 26.546875 -160.8125 31.828125 -165.34375 C 37.117188 -169.875 43.492188 -173.394531 50.953125 -175.90625 C 58.421875 -178.425781 66.769531 -179.6875 76 -179.6875 C 86.40625 -179.6875 95.632812 -178.21875 103.6875 -175.28125 C 111.738281 -172.351562 118.488281 -168.367188 123.9375 -163.328125 C 129.394531 -158.296875 133.507812 -152.507812 136.28125 -145.96875 C 139.050781 -139.425781 140.4375 -132.546875 140.4375 -125.328125 L 140.4375 -116.265625 L 107.21875 -116.265625 Z M 107.21875 -122.3125 "/></g></g></g></g></g></svg>